<svg xmlns="http://www.w3.org/2000/svg" viewBox="0 0 24 24"><g fill="currentColor"><path fill-rule="evenodd" d="M8.672 7.542h6.656c3.374 0 5.062 0 6.01.987s.724 2.511.278 5.56l-.422 2.892c-.35 2.391-.525 3.587-1.422 4.303s-2.22.716-4.867.716h-5.81c-2.646 0-3.97 0-4.867-.716s-1.072-1.912-1.422-4.303l-.422-2.892c-.447-3.049-.67-4.573.278-5.56s2.636-.987 6.01-.987M8 18c0-.414.373-.75.833-.75h6.334c.46 0 .833.336.833.75s-.373.75-.833.75H8.833c-.46 0-.833-.336-.833-.75" clip-rule="evenodd"/><g opacity=".5"><path d="M17.862 4.723c1.39 0 2.53.84 2.91 1.954q.014.034.024.07a7.6 7.6 0 0 0-1.232-.254c-1.08-.138-2.445-.138-4.031-.138H8.64c-1.586 0-2.95 0-4.031.138a8 8 0 0 0-1.233.253l.023-.07c.38-1.113 1.521-1.953 2.912-1.953z"/><path d="M15.49 2c.232 0 .411 0 .567.016 1.108.108 2.014.774 2.399 1.67H5.544c.385-.897 1.292-1.562 2.4-1.67A6 6 0 0 1 8.51 2z"/></g></g></svg>