<svg xmlns="http://www.w3.org/2000/svg" viewBox="0 0 24 24"><g fill="currentColor"><path d="M12 7.75a2.25 2.25 0 1 1 0 4.5 2.25 2.25 0 0 1 0-4.5"/><path fill-rule="evenodd" d="M11.935 2c4.418.036 8.029 3.646 8.065 8.064a7.84 7.84 0 0 1-7.252 7.909l.002.03v3.246H16a.75.75 0 0 1 0 1.5H8a.75.75 0 0 1 0-1.5h3.25v-3.247l.002-.051C7.212 17.51 4.034 14.078 4 9.935A7.845 7.845 0 0 1 11.935 2M12 6.25a3.75 3.75 0 1 0 0 7.5 3.75 3.75 0 0 0 0-7.5m0-2.5a.75.75 0 1 0 0 1.501.75.75 0 0 0 0-1.5" clip-rule="evenodd"/></g></svg>